# xmcd
#
# Track frame offsets:
#	150
#	21927
#	34720
#	52440
#	69662
#	87217
#	106242
#	121350
#	135450
#	156795
#	174372
#	188810
#	204082
#
# Disc length: 2960 seconds
#
# Revision: 1
# Processed by: cddbd v1.4PL0 Copyright (c) Steve Scherf et al.
# Submitted via: audiograbber 1.82.02
#
DISCID=ac0b8e0d
DTITLE=Dan Vogler - Straight from the Father's Heart
DYEAR=1900
DGENRE=Christian
TTITLE0=Straight from the Father's Heart
TTITLE1=If you want to make heaven
TTITLE2=What will you make of it
TTITLE3=Will you bow and call Jesus Lord
TTITLE4=Because He lives
TTITLE5=Sweet river
TTITLE6=Victory in the name of Jesus
TTITLE7=The God we serve is living
TTITLE8=Amazing Grace
TTITLE9=Pilgrim
TTITLE10=Children of the outback land
TTITLE11=Have you been to Jesus
TTITLE12=By the power of your love
EXTD=
EXTT0=
EXTT1=
EXTT2=
EXTT3=
EXTT4=
EXTT5=
EXTT6=
EXTT7=
EXTT8=
EXTT9=
EXTT10=
EXTT11=
EXTT12=
PLAYORDER=
